<svg height="800" width="800" xmlns="http://www.w3.org/2000/svg" viewBox="0 0 398.283 398.283" xml:space="preserve" fill="#fff"><path style="fill:#fff" d="m199.141 398.283-4.535-5.293C188.795 386.206 52.32 225.906 52.32 146.821 52.32 65.862 118.183 0 199.141 0s146.821 65.868 146.821 146.821c0 79.085-136.48 239.391-142.292 246.169l-4.529 5.293zm0-386.355c-74.377 0-134.887 60.51-134.887 134.887 0 66.96 110.894 204.121 134.887 233.006 23.993-28.886 134.887-166.046 134.887-233.006-.006-74.371-60.51-134.887-134.887-134.887z"/><path style="fill:#fff" d="M199.141 207.337c-33.367 0-60.516-27.149-60.516-60.522 0-33.367 27.149-60.516 60.516-60.516 33.373 0 60.522 27.149 60.522 60.516 0 33.373-27.149 60.522-60.522 60.522zm0-109.104c-26.791 0-48.582 21.791-48.582 48.582s21.791 48.588 48.582 48.588 48.588-21.791 48.588-48.588c.001-26.785-21.796-48.582-48.588-48.582z"/></svg>